<svg xmlns="http://www.w3.org/2000/svg" viewBox="0 0 1365 768">
<defs><linearGradient id="sun" x1="0" x2="1" y1="0" y2="1"><stop offset="0" stop-color="#fffdf4"/><stop offset="1" stop-color="#ffe3e6"/></linearGradient><filter id="soft"><feGaussianBlur stdDeviation="18"/></filter></defs>
<rect width="1365" height="768" fill="url(#sun)"/><rect x="0" y="0" width="1365" height="768" fill="#ffe3e6" opacity=".38"/>
<rect x="0" y="610" width="1365" height="158" fill="#d99f70" opacity=".65"/><g opacity=".28"><path d="M0 0v610" stroke="#d88"/><path d="M80 0v610" stroke="#d88"/><path d="M160 0v610" stroke="#d88"/><path d="M240 0v610" stroke="#d88"/><path d="M320 0v610" stroke="#d88"/><path d="M400 0v610" stroke="#d88"/><path d="M480 0v610" stroke="#d88"/><path d="M560 0v610" stroke="#d88"/><path d="M640 0v610" stroke="#d88"/><path d="M720 0v610" stroke="#d88"/><path d="M800 0v610" stroke="#d88"/><path d="M880 0v610" stroke="#d88"/><path d="M960 0v610" stroke="#d88"/><path d="M1040 0v610" stroke="#d88"/><path d="M1120 0v610" stroke="#d88"/><path d="M1200 0v610" stroke="#d88"/><path d="M1280 0v610" stroke="#d88"/><path d="M1360 0v610" stroke="#d88"/></g>
<rect x="520" y="70" width="330" height="270" rx="18" fill="#fff8e9" stroke="#d7a77e" stroke-width="8"/><line x1="685" y1="70" x2="685" y2="340" stroke="#d7a77e" stroke-width="8"/><line x1="520" y1="205" x2="850" y2="205" stroke="#d7a77e" stroke-width="8"/><circle cx="685" cy="205" r="170" fill="#fffbd1" opacity=".35" filter="url(#soft)"/>
<path d="M500 60 C450 150 445 250 470 365" fill="none" stroke="#f8b9c9" stroke-width="38" opacity=".5"/><path d="M870 60 C920 150 925 250 900 365" fill="none" stroke="#f8b9c9" stroke-width="38" opacity=".5"/>
<rect x="95" y="335" width="430" height="210" rx="28" fill="#d88f68"/><rect x="120" y="285" width="360" height="80" rx="40" fill="#b7744f"/><rect x="115" y="355" width="430" height="155" rx="10" fill="#ffd0dc"/><circle cx="370" cy="415" r="52" fill="#ffb2c4"/><rect x="1130" y="310" width="170" height="310" rx="18" fill="#d5a276"/><circle cx="1215" cy="420" r="75" fill="#f3c29a"/>
<rect x="600" y="505" width="285" height="72" rx="36" fill="#bd7e4f" opacity=".88"/><ellipse cx="742" cy="505" rx="160" ry="50" fill="#d79b62"/><circle cx="710" cy="465" r="25" fill="#ffb0bd"/><rect x="690" y="450" width="50" height="65" rx="10" fill="#ff9fb2"/><rect x="785" y="450" width="80" height="45" rx="5" fill="#b8c99e"/><rect x="80" y="80" width="170" height="210" rx="18" fill="#f7d4bc" opacity=".7"/><circle cx="160" cy="210" r="38" fill="#8dbb7b"/><rect x="1100" y="90" width="170" height="360" rx="18" fill="#b98255" opacity=".72"/><rect x="1125" y="120" width="120" height="28" rx="5" fill="#f6d2a4" opacity=".85"/><rect x="1125" y="178" width="120" height="28" rx="5" fill="#f6d2a4" opacity=".85"/><rect x="1125" y="236" width="120" height="28" rx="5" fill="#f6d2a4" opacity=".85"/><rect x="1125" y="294" width="120" height="28" rx="5" fill="#f6d2a4" opacity=".85"/><rect x="1125" y="352" width="120" height="28" rx="5" fill="#f6d2a4" opacity=".85"/>
<g opacity=".9"><circle cx="100" cy="660" r="40" fill="#f5d7c5"/><circle cx="230" cy="678" r="40" fill="#f5d7c5"/><circle cx="360" cy="660" r="40" fill="#f5d7c5"/><circle cx="490" cy="678" r="40" fill="#f5d7c5"/><circle cx="620" cy="660" r="40" fill="#f5d7c5"/><circle cx="750" cy="678" r="40" fill="#f5d7c5"/><circle cx="880" cy="660" r="40" fill="#f5d7c5"/><circle cx="1010" cy="678" r="40" fill="#f5d7c5"/><circle cx="1140" cy="660" r="40" fill="#f5d7c5"/><circle cx="1270" cy="678" r="40" fill="#f5d7c5"/></g>
<text x="40" y="735" font-size="28" fill="#b46b76" font-weight="900">寝室 - るいとまいのおうち</text>
</svg>