<svg xmlns="http://www.w3.org/2000/svg" viewBox="0 0 300 240"><path d="M220 150 C315 120 320 45 245 50" fill="none" stroke="#fffdf8" stroke-width="36" stroke-linecap="round"/><path d="M220 150 C315 120 320 45 245 50" fill="none" stroke="#2d2d35" stroke-width="6" stroke-linecap="round" opacity=".75"/><rect x="200" y="120" width="45" height="95" rx="18" fill="#c99a72"/><ellipse cx="150" cy="160" rx="85" ry="55" fill="#fffdf8" stroke="#2d2d35" stroke-width="8"/><circle cx="135" cy="92" r="70" fill="#fffdf8" stroke="#2d2d35" stroke-width="8"/><path d="M83 50 L105 10 L128 57" fill="#fffdf8" stroke="#2d2d35" stroke-width="8"/><path d="M166 57 L195 10 L205 65" fill="#fffdf8" stroke="#2d2d35" stroke-width="8"/><circle cx="112" cy="88" r="8"/><circle cx="158" cy="88" r="8"/><ellipse cx="135" cy="110" rx="10" ry="7" fill="#ff9daf"/><path d="M135 117 q-5 13 -13 8" stroke="#333" stroke-width="4" fill="none"/><path d="M135 117 q5 13 13 8" stroke="#333" stroke-width="4" fill="none"/><circle cx="128" cy="132" r="5" fill="#222"/><path d="M70 172 q18 18 38 0" stroke="#2d2d35" stroke-width="6" fill="none"/><path d="M185 172 q18 18 38 0" stroke="#2d2d35" stroke-width="6" fill="none"/></svg>