<svg xmlns="http://www.w3.org/2000/svg" viewBox="0 0 1600 900">
<defs>
  <linearGradient id="wall" x1="0" y1="0" x2="0" y2="1"><stop stop-color="#fff7ec"/><stop offset=".55" stop-color="#ffe8ef"/><stop offset="1" stop-color="#ffdfe8"/></linearGradient>
  <linearGradient id="floor" x1="0" y1="0" x2="0" y2="1"><stop stop-color="#e9bd82"/><stop offset="1" stop-color="#c98b55"/></linearGradient>
  <radialGradient id="glow" cx="48%" cy="19%" r="58%"><stop stop-color="#fff6be" stop-opacity=".98"/><stop offset=".42" stop-color="#fff1be" stop-opacity=".3"/><stop offset="1" stop-color="#fff1be" stop-opacity="0"/></radialGradient>
  <filter id="shadow" x="-20%" y="-20%" width="140%" height="140%"><feDropShadow dx="0" dy="8" stdDeviation="5" flood-color="#7b4b37" flood-opacity=".18"/></filter>
  <pattern id="dots" width="70" height="70" patternUnits="userSpaceOnUse"><circle cx="18" cy="18" r="4" fill="#fff" opacity=".55"/><circle cx="52" cy="45" r="3" fill="#fff" opacity=".45"/></pattern>
  <pattern id="planks" width="160" height="90" patternUnits="userSpaceOnUse"><path d="M0 12H160M0 55H160" stroke="#b87848" stroke-opacity=".24" stroke-width="4"/><path d="M45 0V55M115 55v35" stroke="#b87848" stroke-opacity=".18" stroke-width="3"/></pattern>
</defs>

<rect width="1600" height="900" fill="url(#wall)"/><rect width="1600" height="900" fill="url(#dots)" opacity=".55"/><rect width="1600" height="900" fill="url(#glow)"/>
<rect y="720" width="1600" height="180" fill="url(#floor)"/><rect y="720" width="1600" height="180" fill="url(#planks)" opacity=".85"/>
<path d="M0 720 C260 700 420 728 615 707 C830 684 1025 730 1240 706 C1390 690 1505 703 1600 690 V900 H0Z" fill="#d99c63" opacity=".22"/>
<g opacity=".5" fill="#fff" filter="url(#shadow)"><circle cx="725" cy="222" r="84"/><circle cx="880" cy="272" r="55"/><circle cx="980" cy="180" r="42"/></g>

<g filter="url(#shadow)">
  <rect x="610" y="66" width="415" height="330" rx="30" fill="#fffdf8" stroke="#d9a36b" stroke-width="12"/>
  <path d="M630 84h375v292H630z" fill="#dff4ff" opacity=".62"/>
  <path d="M643 330 C735 250 880 260 996 120 L1002 379 H642Z" fill="#bde6c2" opacity=".45"/>
  <line x1="818" y1="72" x2="818" y2="392" stroke="#d9a36b" stroke-width="9"/><line x1="618" y1="232" x2="1018" y2="232" stroke="#d9a36b" stroke-width="9"/>
  <path d="M608 82 C535 170 530 296 602 410 L695 410 C663 280 681 170 712 82Z" fill="#ffc6d6" opacity=".9"/>
  <path d="M1027 82 C1100 170 1105 296 1033 410 L940 410 C972 280 954 170 923 82Z" fill="#ffc6d6" opacity=".9"/>
</g><g opacity=".72"><path d="M82 130 C300 70 480 155 650 105 C890 36 1075 130 1280 82 C1395 55 1490 88 1540 115" fill="none" stroke="#c27b5a" stroke-width="5" stroke-linecap="round"/>
<circle cx="100" cy="105" r="12" fill="#fff2a8" stroke="#e9bc73" stroke-width="4"/><circle cx="215" cy="125" r="12" fill="#fff2a8" stroke="#e9bc73" stroke-width="4"/><circle cx="330" cy="145" r="12" fill="#fff2a8" stroke="#e9bc73" stroke-width="4"/><circle cx="445" cy="105" r="12" fill="#fff2a8" stroke="#e9bc73" stroke-width="4"/><circle cx="560" cy="125" r="12" fill="#fff2a8" stroke="#e9bc73" stroke-width="4"/><circle cx="675" cy="145" r="12" fill="#fff2a8" stroke="#e9bc73" stroke-width="4"/><circle cx="790" cy="105" r="12" fill="#fff2a8" stroke="#e9bc73" stroke-width="4"/><circle cx="905" cy="125" r="12" fill="#fff2a8" stroke="#e9bc73" stroke-width="4"/><circle cx="1020" cy="145" r="12" fill="#fff2a8" stroke="#e9bc73" stroke-width="4"/><circle cx="1135" cy="105" r="12" fill="#fff2a8" stroke="#e9bc73" stroke-width="4"/><circle cx="1250" cy="125" r="12" fill="#fff2a8" stroke="#e9bc73" stroke-width="4"/><circle cx="1365" cy="145" r="12" fill="#fff2a8" stroke="#e9bc73" stroke-width="4"/><circle cx="1480" cy="105" r="12" fill="#fff2a8" stroke="#e9bc73" stroke-width="4"/></g>
<g filter="url(#shadow)">
 <rect x="104" y="628" width="115" height="120" rx="26" fill="#bd8354"/><circle cx="116" cy="610" r="48" fill="#9ac980"/><circle cx="185" cy="575" r="58" fill="#8ec077"/><circle cx="236" cy="628" r="49" fill="#a9d08d"/><circle cx="167" cy="662" r="42" fill="#7eb46b"/>
 <rect x="1286" y="620" width="100" height="112" rx="25" fill="#c8915e"/><circle cx="1294" cy="610" r="38" fill="#8cc276"/><circle cx="1346" cy="575" r="50" fill="#a5d18a"/><circle cx="1390" cy="627" r="38" fill="#7fb86d"/>
</g>
<g filter="url(#shadow)">
  <rect x="98" y="455" width="560" height="260" rx="28" fill="#d39b64"/>
  <rect x="125" y="488" width="145" height="85" rx="18" fill="#fff4e7"/><rect x="295" y="488" width="145" height="85" rx="18" fill="#fff4e7"/><rect x="465" y="488" width="145" height="85" rx="18" fill="#fff4e7"/>
  <rect x="125" y="600" width="145" height="85" rx="18" fill="#ffd3df"/><rect x="295" y="600" width="145" height="85" rx="18" fill="#d9efc6"/><rect x="465" y="600" width="145" height="85" rx="18" fill="#fff1b9"/>
  <rect x="70" y="414" width="620" height="55" rx="24" fill="#c7814d"/>
  <circle cx="210" cy="440" r="24" fill="#f8eff0"/><rect x="255" y="425" width="128" height="29" rx="14" fill="#b8d9ff"/><circle cx="425" cy="438" r="18" fill="#ffe7a6"/>
  <rect x="760" y="338" width="230" height="382" rx="24" fill="#bfe3dd"/><rect x="790" y="385" width="170" height="95" rx="20" fill="#fff8f4"/><circle cx="932" cy="542" r="16" fill="#9e6d53"/>
  <rect x="1052" y="428" width="405" height="290" rx="26" fill="#c98d5c"/>
  <rect x="1090" y="462" width="150" height="110" rx="22" fill="#fff4e7"/><rect x="1265" y="462" width="150" height="110" rx="22" fill="#fff4e7"/>
  <rect x="1090" y="604" width="325" height="80" rx="22" fill="#ffd3df"/>
  <path d="M1170 382 h170 q20 0 20 20 v45 h-210 v-45 q0-20 20-20Z" fill="#f4cf94"/><circle cx="1215" cy="417" r="20" fill="#fff8f4"/><circle cx="1295" cy="417" r="20" fill="#fff8f4"/>
  <g opacity=".82" stroke="#b87a50" stroke-width="7" stroke-linecap="round"><path d="M320 250 v135"/><path d="M365 245 v140"/><path d="M410 250 v135"/></g>
  <rect x="285" y="230" width="160" height="35" rx="17" fill="#dba168"/><circle cx="320" cy="390" r="19" fill="#fff0d0"/><rect x="350" y="370" width="32" height="52" rx="12" fill="#f8aab8"/><path d="M405 370 q35 25 0 52" fill="none" stroke="#d9efc6" stroke-width="20" stroke-linecap="round"/>
  <circle cx="705" cy="738" r="52" fill="#fff7ec"/><circle cx="988" cy="748" r="43" fill="#d9efc6"/><circle cx="1488" cy="742" r="54" fill="#ffd3df"/>
</g>
</svg>