<svg xmlns="http://www.w3.org/2000/svg" viewBox="0 0 300 240"><path d="M218 152 C260 155 270 105 232 95" fill="none" stroke="#f0a036" stroke-width="32" stroke-linecap="round"/><path d="M218 152 C260 155 270 105 232 95" fill="none" stroke="#2d2d35" stroke-width="7" stroke-linecap="round"/><rect x="200" y="120" width="45" height="95" rx="18" fill="#c99a72"/><ellipse cx="150" cy="160" rx="85" ry="55" fill="#fff7ee" stroke="#2d2d35" stroke-width="8"/><path d="M82 28 C105 20 130 40 126 68 C102 66 87 55 82 28Z" fill="#f0a036"/><path d="M154 28 C190 28 204 55 188 78 C169 70 157 55 154 28Z" fill="#222"/><path d="M92 126 C132 110 178 122 195 154 C165 170 120 165 92 126Z" fill="#f0a036"/><path d="M175 130 C212 120 245 145 242 179 C215 178 190 162 175 130Z" fill="#222"/><circle cx="135" cy="92" r="70" fill="#fff7ee" stroke="#2d2d35" stroke-width="8"/><path d="M83 50 L105 10 L128 57" fill="#fff7ee" stroke="#2d2d35" stroke-width="8"/><path d="M166 57 L195 10 L205 65" fill="#fff7ee" stroke="#2d2d35" stroke-width="8"/><path d="M82 28 C105 20 130 40 126 68 C102 66 87 55 82 28Z" fill="#f0a036"/><path d="M154 28 C190 28 204 55 188 78 C169 70 157 55 154 28Z" fill="#222"/><circle cx="112" cy="88" r="10"/><circle cx="158" cy="88" r="10"/><circle cx="116" cy="84" r="3" fill="#fff"/><circle cx="162" cy="84" r="3" fill="#fff"/><ellipse cx="135" cy="110" rx="10" ry="7" fill="#ff9daf"/><path d="M135 117 q-5 13 -13 8" stroke="#333" stroke-width="4" fill="none"/><path d="M135 117 q5 13 13 8" stroke="#333" stroke-width="4" fill="none"/><path d="M70 172 q18 18 38 0" stroke="#2d2d35" stroke-width="6" fill="none"/><path d="M185 172 q18 18 38 0" stroke="#2d2d35" stroke-width="6" fill="none"/></svg>